# wavefront obj file written by the visualization toolkit

mtllib /Users/alicesegato/Desktop/fiducial/50.mtl

v -30.034 14.766 54.375
v -30.034 14.766 52.375
v -29.6001 14.766 54.276
v -29.2522 14.766 53.9985
v -29.0591 14.766 53.5975
v -29.0591 14.766 53.1525
v -29.2522 14.766 52.7515
v -29.6001 14.766 52.474
v -29.7272 15.0728 54.276
v -29.4812 15.3188 53.9985
v -29.3446 15.4554 53.5975
v -29.3446 15.4554 53.1525
v -29.4812 15.3188 52.7515
v -29.7272 15.0728 52.474
v -30.034 15.1999 54.276
v -30.034 15.5478 53.9985
v -30.034 15.7409 53.5975
v -30.034 15.7409 53.1525
v -30.034 15.5478 52.7515
v -30.034 15.1999 52.474
v -30.3408 15.0728 54.276
v -30.5868 15.3188 53.9985
v -30.7234 15.4554 53.5975
v -30.7234 15.4554 53.1525
v -30.5868 15.3188 52.7515
v -30.3408 15.0728 52.474
v -30.4679 14.766 54.276
v -30.8158 14.766 53.9985
v -31.0089 14.766 53.5975
v -31.0089 14.766 53.1525
v -30.8158 14.766 52.7515
v -30.4679 14.766 52.474
v -30.3408 14.4592 54.276
v -30.5868 14.2132 53.9985
v -30.7234 14.0766 53.5975
v -30.7234 14.0766 53.1525
v -30.5868 14.2132 52.7515
v -30.3408 14.4592 52.474
v -30.034 14.3321 54.276
v -30.034 13.9842 53.9985
v -30.034 13.7911 53.5975
v -30.034 13.7911 53.1525
v -30.034 13.9842 52.7515
v -30.034 14.3321 52.474
v -29.7272 14.4592 54.276
v -29.4812 14.2132 53.9985
v -29.3446 14.0766 53.5975
v -29.3446 14.0766 53.1525
v -29.4812 14.2132 52.7515
v -29.7272 14.4592 52.474
vn 0 0 1
vn 0 0 -1
vn 0.433884 0 0.900969
vn 0.781832 0 0.62349
vn 0.974928 0 0.222521
vn 0.974928 0 -0.222521
vn 0.781832 0 -0.62349
vn 0.433884 0 -0.900969
vn 0.306802 0.306802 0.900969
vn 0.552838 0.552838 0.62349
vn 0.689378 0.689378 0.222521
vn 0.689378 0.689378 -0.222521
vn 0.552838 0.552838 -0.62349
vn 0.306802 0.306802 -0.900969
vn 2.65677e-17 0.433884 0.900969
vn 4.78734e-17 0.781832 0.62349
vn 5.96971e-17 0.974928 0.222521
vn 5.96971e-17 0.974928 -0.222521
vn 4.78734e-17 0.781832 -0.62349
vn 2.65677e-17 0.433884 -0.900969
vn -0.306802 0.306802 0.900969
vn -0.552838 0.552838 0.62349
vn -0.689378 0.689378 0.222521
vn -0.689378 0.689378 -0.222521
vn -0.552838 0.552838 -0.62349
vn -0.306802 0.306802 -0.900969
vn -0.433884 5.31354e-17 0.900969
vn -0.781832 9.57467e-17 0.62349
vn -0.974928 1.19394e-16 0.222521
vn -0.974928 1.19394e-16 -0.222521
vn -0.781832 9.57467e-17 -0.62349
vn -0.433884 5.31354e-17 -0.900969
vn -0.306802 -0.306802 0.900969
vn -0.552838 -0.552838 0.62349
vn -0.689378 -0.689378 0.222521
vn -0.689378 -0.689378 -0.222521
vn -0.552838 -0.552838 -0.62349
vn -0.306802 -0.306802 -0.900969
vn -7.97032e-17 -0.433884 0.900969
vn -1.4362e-16 -0.781832 0.62349
vn -1.79091e-16 -0.974928 0.222521
vn -1.79091e-16 -0.974928 -0.222521
vn -1.4362e-16 -0.781832 -0.62349
vn -7.97032e-17 -0.433884 -0.900969
vn 0.306802 -0.306802 0.900969
vn 0.552838 -0.552838 0.62349
vn 0.689378 -0.689378 0.222521
vn 0.689378 -0.689378 -0.222521
vn 0.552838 -0.552838 -0.62349
vn 0.306802 -0.306802 -0.900969

g grp1
usemtl mtl1
f 3//3 9//9 1//1 
f 9//9 15//15 1//1 
f 15//15 21//21 1//1 
f 21//21 27//27 1//1 
f 27//27 33//33 1//1 
f 33//33 39//39 1//1 
f 39//39 45//45 1//1 
f 45//45 3//3 1//1 
f 8//8 2//2 14//14 
f 14//14 2//2 20//20 
f 20//20 2//2 26//26 
f 26//26 2//2 32//32 
f 32//32 2//2 38//38 
f 38//38 2//2 44//44 
f 44//44 2//2 50//50 
f 50//50 2//2 8//8 
f 3//3 4//4 10//10 
f 3//3 10//10 9//9 
f 4//4 5//5 11//11 
f 4//4 11//11 10//10 
f 5//5 6//6 12//12 
f 5//5 12//12 11//11 
f 6//6 7//7 13//13 
f 6//6 13//13 12//12 
f 7//7 8//8 14//14 
f 7//7 14//14 13//13 
f 9//9 10//10 16//16 
f 9//9 16//16 15//15 
f 10//10 11//11 17//17 
f 10//10 17//17 16//16 
f 11//11 12//12 18//18 
f 11//11 18//18 17//17 
f 12//12 13//13 19//19 
f 12//12 19//19 18//18 
f 13//13 14//14 20//20 
f 13//13 20//20 19//19 
f 15//15 16//16 22//22 
f 15//15 22//22 21//21 
f 16//16 17//17 23//23 
f 16//16 23//23 22//22 
f 17//17 18//18 24//24 
f 17//17 24//24 23//23 
f 18//18 19//19 25//25 
f 18//18 25//25 24//24 
f 19//19 20//20 26//26 
f 19//19 26//26 25//25 
f 21//21 22//22 28//28 
f 21//21 28//28 27//27 
f 22//22 23//23 29//29 
f 22//22 29//29 28//28 
f 23//23 24//24 30//30 
f 23//23 30//30 29//29 
f 24//24 25//25 31//31 
f 24//24 31//31 30//30 
f 25//25 26//26 32//32 
f 25//25 32//32 31//31 
f 27//27 28//28 34//34 
f 27//27 34//34 33//33 
f 28//28 29//29 35//35 
f 28//28 35//35 34//34 
f 29//29 30//30 36//36 
f 29//29 36//36 35//35 
f 30//30 31//31 37//37 
f 30//30 37//37 36//36 
f 31//31 32//32 38//38 
f 31//31 38//38 37//37 
f 33//33 34//34 40//40 
f 33//33 40//40 39//39 
f 34//34 35//35 41//41 
f 34//34 41//41 40//40 
f 35//35 36//36 42//42 
f 35//35 42//42 41//41 
f 36//36 37//37 43//43 
f 36//36 43//43 42//42 
f 37//37 38//38 44//44 
f 37//37 44//44 43//43 
f 39//39 40//40 46//46 
f 39//39 46//46 45//45 
f 40//40 41//41 47//47 
f 40//40 47//47 46//46 
f 41//41 42//42 48//48 
f 41//41 48//48 47//47 
f 42//42 43//43 49//49 
f 42//42 49//49 48//48 
f 43//43 44//44 50//50 
f 43//43 50//50 49//49 
f 45//45 46//46 4//4 
f 45//45 4//4 3//3 
f 46//46 47//47 5//5 
f 46//46 5//5 4//4 
f 47//47 48//48 6//6 
f 47//47 6//6 5//5 
f 48//48 49//49 7//7 
f 48//48 7//7 6//6 
f 49//49 50//50 8//8 
f 49//49 8//8 7//7 
